PathFileType	4	(X/Y/Z)	c:\Git\powerlifing_model_clean\simulations\HC835B\Session1\HC835B_OGR_0007\marker_experimental.trc
DataRate	CameraRate	NumFrames	NumMarkers	Units	OrigDataRate	OrigDataStartFrame	OrigNumFrames
240.000000	240.000000	4	38	mm	240.000000	27	223
Frame#	Time	RPSI			LPSI			RASI			LASI			RTH1			RTH2			RTH3			RTH4			RSK1			RSK2			RSK3			RSK4			RCAL1			RCAL2			RCAL3			RST			RPT			RTN			RFMB			RSMB			RVMB			RFMH			RSMH			RVMH			RPM			LTH1			LTH2			LTH3			LTH4			LSK1			LSK2			LSK3			LSK4			LCAL1			LCAL2			LCAL3			LFMH			LVMH			
		X1	Y1	Z1	X2	Y2	Z2	X3	Y3	Z3	X4	Y4	Z4	X5	Y5	Z5	X6	Y6	Z6	X7	Y7	Z7	X8	Y8	Z8	X9	Y9	Z9	X10	Y10	Z10	X11	Y11	Z11	X12	Y12	Z12	X13	Y13	Z13	X14	Y14	Z14	X15	Y15	Z15	X16	Y16	Z16	X17	Y17	Z17	X18	Y18	Z18	X19	Y19	Z19	X20	Y20	Z20	X21	Y21	Z21	X22	Y22	Z22	X23	Y23	Z23	X24	Y24	Z24	X25	Y25	Z25	X26	Y26	Z26	X27	Y27	Z27	X28	Y28	Z28	X29	Y29	Z29	X30	Y30	Z30	X31	Y31	Z31	X32	Y32	Z32	X33	Y33	Z33	X34	Y34	Z34	X35	Y35	Z35	X36	Y36	Z36	X37	Y37	Z37	X38	Y38	Z38	

28	0.1125	499.9002075195314	1107.571411132813	-251.8154754638672	390.199676513672	1106.643798828125	-261.2849731445313	566.0795288085939	1059.167602539063	-458.3126831054689	331.6184387207032	1047.801391601563	-464.2522583007814	632.3693847656251	788.550720214844	-438.3487854003907	629.1968994140626	792.6055297851565	-499.0783691406251	616.2739257812501	717.5436401367189	-480.952606201172	602.7012329101564	722.0238037109376	-537.7138061523439	529.4857788085939	289.6540222167969	-447.5930480957032	528.6303710937501	269.9158630371094	-506.2304687500001	518.5869140625001	232.7601623535157	-458.8205871582032	505.4528808593751	216.7812042236329	-515.1016845703126	439.3738708496095	92.92394256591798	-390.2423706054689	407.5935974121095	56.53727340698244	-396.427459716797	471.2647399902345	58.1339797973633	-386.8643188476564	400.1665649414064	69.11974334716798	-466.3787231445314	499.5913391113282	67.70534515380861	-444.9205627441407	419.2595825195314	87.72586822509767	-521.0517578125001	425.9992980957032	71.81262969970705	-553.3270263671876	474.7862548828126	94.56149291992189	-558.6483764648439	514.3045043945314	42.1779899597168	-485.8558349609376	429.0467834472657	46.37926864624024	-608.0458374023439	485.0042114257814	58.25646591186525	-617.0191040039064	542.5375366210939	37.10066986083985	-561.2887573242189	479.2514038085939	43.42150497436524	-675.8296508789064	249.2001342773438	766.7602539062501	-327.7053833007813	249.7279815673829	748.7324829101564	-385.8248901367189	247.8855743408204	681.8089599609376	-339.5955810546876	261.6459045410157	664.0793457031251	-396.2540283203126	307.6603088378907	567.6389160156251	-22.61069107055664	293.6728820800782	518.6456909179689	-7.004676818847658	310.2091369628907	547.6331787109376	30.03974533081055	311.0097961425782	493.5368041992189	42.11238861083985	392.5852966308595	587.0228881835939	151.9682769775391	372.7655334472657	598.2930908203126	194.0331573486329	428.3294067382814	581.2186889648439	183.2691192626953	387.9506835937501	367.2714233398438	215.4476776123047	302.2154846191407	429.2375793457032	256.7235412597657	
29	0.1166666666666667	497.8624572753907	1104.736328125	-262.0540161132813	389.182342529297	1100.637939453125	-272.7446594238282	566.5913085937501	1055.5400390625	-470.5291137695314	332.8522033691407	1042.346923828125	-475.6097106933595	632.4982299804689	786.9096679687502	-451.0543212890626	629.4094238281251	791.1699829101565	-511.7974853515626	615.6777954101564	716.3159179687501	-494.041961669922	601.7915649414064	721.2172851562501	-550.6925048828126	528.7877807617189	290.4050598144532	-453.012908935547	528.3690795898439	269.0884399414063	-511.0256652832032	518.0551757812501	233.304183959961	-462.6814880371095	505.2824707031251	215.7123413085938	-518.6696166992189	438.0378417968751	94.67069244384767	-387.4728088378907	407.5442810058595	56.89923477172853	-396.5720520019532	471.2656555175782	58.64915466308595	-387.0549926757814	399.9383239746095	69.15870666503908	-466.5188903808595	499.3456420898439	68.02172851562501	-445.2862548828126	418.6497802734376	87.29795074462892	-521.5103149414064	425.501922607422	71.3113250732422	-553.7128295898439	474.2769775390626	94.28450775146486	-559.0291748046876	514.1506958007814	42.4670639038086	-486.0650634765626	428.7400512695314	45.88342285156251	-608.3339843750001	484.5722045898439	57.81076431274415	-617.4003295898439	540.8258666992189	37.77453231811524	-561.5608520507814	479.0772399902345	42.32204818725587	-676.2864379882814	248.5724639892579	763.1761474609376	-344.5019226074219	249.2402038574219	746.1762695312501	-402.8319396972657	246.8796997070313	678.6810913085939	-357.6047363281251	260.8309020996094	661.7398071289064	-414.3637084960939	306.9717712402344	567.0369873046876	-44.6452751159668	292.7872009277344	518.1912231445314	-28.24052810668946	309.6653442382813	547.5780029296876	8.158041954040529	310.4699707031251	493.404510498047	20.86017799377442	391.8532714843751	588.6123046875001	130.3699645996094	371.7928161621094	600.1029663085939	172.2744140625	427.3080444335939	583.0281372070314	161.8963317871094	387.8998107910157	369.1881103515626	194.9139556884766	301.5368957519532	431.0292053222657	235.443588256836	
30	0.1208333333333333	496.7328186035157	1102.743286132813	-272.7863464355469	389.1089172363282	1097.089599609375	-284.7745971679688	567.7242431640626	1052.59423828125	-482.6315002441407	334.4142761230469	1036.92236328125	-486.9205322265626	632.6771240234376	785.3485107421877	-463.5482788085939	629.2494506835939	790.1446533203127	-524.1998291015626	615.3816528320314	715.1445922851564	-506.9773254394532	601.4995727539064	720.5159912109376	-563.5333862304689	528.3497924804689	291.3466186523438	-458.2000732421876	527.7492065429689	268.3552551269532	-515.6663208007814	517.7415771484376	233.9895172119141	-466.3262634277345	505.1173400878907	214.6982879638672	-521.7501220703126	438.3748779296876	94.9719696044922	-387.6029052734376	407.8087158203126	57.35826873779298	-396.6080017089845	471.5167541503907	58.85797500610353	-387.1041870117189	400.1969299316407	69.32949066162111	-466.596160888672	499.612030029297	68.11923217773439	-445.3473510742189	418.7138671875001	87.0638885498047	-521.8551025390626	425.7973022460939	71.01139068603517	-553.9531250000001	474.5733337402345	93.94505310058595	-559.1524047851564	514.6104125976564	42.37824630737305	-486.0421142578126	429.2777099609376	45.74660110473634	-608.5492553710939	484.976776123047	57.58178710937501	-617.3634643554689	540.8696899414064	37.50825500488282	-561.6060180664064	479.4202575683595	41.18623733520509	-676.5916748046876	247.9928741455079	760.3060913085939	-361.2910461425782	248.9095458984376	743.9900512695314	-419.9007568359376	246.0735931396485	675.8429565429689	-375.5012512207032	260.1911010742188	659.6647338867189	-432.6322021484376	306.2072753906251	566.1771240234376	-66.9571990966797	292.2062377929688	517.6875610351564	-50.02793884277345	309.0142822265626	547.5916137695314	-13.76458358764649	309.8316955566407	493.6121215820314	-0.4306561052799226	391.0277099609376	589.8906860351564	108.6787796020508	370.6235046386719	601.4457397460939	150.3458099365235	426.308074951172	584.6109619140626	140.4660797119141	388.1365966796876	370.9000549316407	173.9973754882813	300.9022216796876	432.2285156250001	213.7284393310547	
31	0.125	496.5143432617189	1101.302001953125	-284.2773437500001	388.9234313964845	1095.60888671875	-296.8503723144532	569.9198608398439	1050.317260742188	-494.909637451172	335.8959655761719	1031.486206054688	-498.3682556152345	632.9332275390626	783.8602294921877	-475.6195373535157	628.9675292968751	789.1192626953127	-536.1858520507814	615.5675659179689	713.9793701171876	-519.4360351562501	601.1286621093751	719.6631469726564	-575.8669433593751	528.1209106445314	291.8364257812501	-463.2473144531251	527.3983154296876	267.3628845214844	-520.1124877929689	517.6354370117189	234.2897338867188	-469.9043273925782	505.0692443847657	213.4834594726563	-524.8250732421876	440.9713439941407	92.35671234130861	-392.4517211914064	407.9078979492189	57.71362686157228	-396.817352294922	471.6375427246095	59.1453094482422	-387.3061828613282	400.2741088867189	69.39059448242189	-466.7596435546876	499.7521972656251	68.19133758544923	-445.5622863769532	418.605438232422	86.74403381347658	-522.2880859375001	425.7809143066407	70.76816558837892	-554.2986450195314	474.6981506347657	93.59867095947267	-559.3757324218751	514.8152465820314	42.32077407836915	-486.105682373047	429.5108947753907	45.52195739746094	-608.8079833984376	485.131072998047	57.10580444335939	-617.7029418945314	541.8299560546876	37.15590286254884	-561.6561279296876	479.6423339843751	40.19403076171876	-676.8967895507814	247.7437438964844	757.5801391601564	-378.3270263671876	248.6537628173829	742.2177734375001	-437.1420898437501	245.3168334960938	673.3344116210939	-393.7876892089845	259.7105712890626	657.9851684570314	-451.1582641601564	305.4119567871094	565.2359619140626	-89.41241455078126	291.3941040039063	516.9256591796876	-71.78076171875001	308.3502502441407	547.3159179687501	-35.94956588745118	309.1459045410157	493.582244873047	-21.90652656555176	390.0545043945314	590.7370605468751	86.92249298095705	369.2371826171876	602.2471923828126	128.3945465087891	425.2093505859376	585.8695068359376	118.9625549316407	388.3740844726564	371.9429321289063	152.6989288330078	300.3832397460938	432.7306518554689	191.7615051269532	
